<svg width="17" height="18" viewBox="0 0 17 18" fill="none" xmlns="http://www.w3.org/2000/svg">
<path d="M13.55 17.2861C12.57 18.2361 11.5 18.0861 10.47 17.6361C9.37998 17.1761 8.37998 17.1561 7.22998 17.6361C5.78998 18.2561 5.02998 18.0761 4.16998 17.2861C-0.710019 12.2561 0.00998116 4.5961 5.54998 4.3161C6.89998 4.3861 7.83998 5.0561 8.62998 5.1161C9.80998 4.8761 10.94 4.1861 12.2 4.2761C13.71 4.3961 14.85 4.9961 15.6 6.0761C12.48 7.9461 13.22 12.0561 16.08 13.2061C15.51 14.7061 14.77 16.1961 13.54 17.2961L13.55 17.2861ZM8.52998 4.2561C8.37998 2.0261 10.19 0.186104 12.27 0.00610352C12.56 2.5861 9.92998 4.5061 8.52998 4.2561Z" fill="#202020"/>
</svg>
