<svg width="33" height="19" viewBox="0 0 33 19" fill="none" xmlns="http://www.w3.org/2000/svg">
<g id="Group">
<path id="Vector" d="M3.85646 12.3203V18.7091H0V0.299316H7.5921C11.5406 0.299316 14.1528 2.39769 14.1528 6.32469C14.1528 10.2219 11.5406 12.3203 7.5921 12.3203H3.85646ZM7.34901 3.56614H3.85646V9.05202H7.34901C9.35419 9.05202 10.3266 7.91622 10.3266 6.32469C10.3266 4.67638 9.35419 3.56614 7.34901 3.56614Z" fill="#00CAD8"/>
<path id="Vector_2" d="M24.994 0.299316H21.303L23.0133 4.93477L23.0205 4.91631L25.2975 11.0311H20.742L21.7978 8.19591L19.9825 3.27509L14 18.7062H17.8867L19.5265 14.2696H26.513L28.183 18.7062H32.1316L24.994 0.299316Z" fill="white"/>
</g>
</svg>
