<svg width="112" height="20" viewBox="0 0 112 20" fill="none" xmlns="http://www.w3.org/2000/svg">
<g id="Group">
<path id="Vector" d="M3.85646 12.3203V18.7091H0V0.299316H7.5921C11.5406 0.299316 14.1528 2.39769 14.1528 6.32469C14.1528 10.2219 11.5406 12.3203 7.5921 12.3203H3.85646ZM7.34901 3.56614H3.85646V9.05202H7.34901C9.35419 9.05202 10.3266 7.91622 10.3266 6.32469C10.3266 4.67638 9.35419 3.56614 7.34901 3.56614Z" fill="#00CAD8"/>
<path id="Vector_2" d="M24.9066 0.299316H21.3349L24.4261 8.92992L25.2101 11.0311H20.6546L21.7334 8.13486L19.9454 3.1459L13.9111 18.7062H17.7992L19.4391 14.2696H26.4241L28.0956 18.7062H32.0427L24.9066 0.299316Z" fill="#00CAD8"/>
<path id="Vector_3" d="M43.9499 0.299316L40.0014 7.14814L37.418 11.7169L37.4194 11.7211V18.7062H41.2773V11.7211L48.0509 0.299316H43.9499Z" fill="#00CAD8"/>
<path id="Vector_4" d="M38.1433 5.83346L34.9298 0.299316H30.708L36.0921 9.4609L38.1433 5.83346Z" fill="#00CAD8"/>
<path id="Vector_5" d="M95.0522 0.299316H91.1641V18.7062H95.0522V0.299316Z" fill="white"/>
<path id="Vector_6" d="M101.338 13.4591C101.854 15.0776 103.221 15.8273 105.043 15.8273C106.926 15.8273 108.172 14.9882 108.172 13.5188C108.172 12.4099 107.503 11.8151 105.894 11.4502L102.554 10.702C99.8795 10.1015 97.8153 8.69307 97.8153 5.66476C97.8153 2.33831 100.609 0 104.527 0C108.779 0 111.239 2.21763 111.847 5.33538H107.989C107.558 4.10589 106.501 3.14757 104.557 3.14757C102.797 3.14757 101.611 3.98663 101.611 5.30557C101.611 6.35476 102.31 6.9837 103.707 7.3145L107.109 8.09394C110.146 8.78251 112 10.4919 112 13.2788C112 16.8466 109.024 19.0046 105.075 19.0046C100.914 19.0046 97.9678 16.9673 97.3306 13.4591H101.338Z" fill="white"/>
<path id="Vector_7" d="M79.1363 4.232L76.4939 0.299316H72.0894L76.9196 7.36678L79.1363 4.232Z" fill="white"/>
<path id="Vector_8" d="M82.689 9.26356L88.8556 0.299316H84.6036L83.1033 2.48146L83.1306 2.49991L81.7138 4.50317L80.5026 6.26506L80.4854 6.23951L76.7957 11.4599L76.7857 11.4542L71.7856 18.7062H76.0679L80.412 12.3203L84.7848 18.7062H89.1592L82.689 9.26356Z" fill="white"/>
<path id="Vector_9" d="M63.9794 0.299316H60.2883L61.9986 4.93477L62.0058 4.91631L64.2829 11.0311H59.7273L60.7831 8.19591L58.9678 3.27509L52.9854 18.7062H56.872L58.5118 14.2696H65.4984L67.1684 18.7062H71.1169L63.9794 0.299316Z" fill="white"/>
</g>
</svg>
