<svg viewBox="0 0 20 28" xmlns="http://www.w3.org/2000/svg">
<path d="M15.9408 2.17134C13.7763 0.387544 10.9268 -0.322277 8.12447 0.223322C4.35183 0.957697 1.32186 4.14233 0.756168 7.9679C0.294752 11.0897 1.40381 14.2074 3.72301 16.3081C4.76797 17.2546 5.39839 18.6178 5.49852 20.1471C5.50043 20.1749 5.50585 20.2016 5.51191 20.2281V25.0237C5.51191 25.2877 5.72588 25.502 5.99023 25.502H6.46695C6.66114 26.892 7.68283 27.9564 8.91338 27.9564H11.0849C12.3155 27.9564 13.3368 26.892 13.531 25.502H14.0078C14.2718 25.502 14.4861 25.2877 14.4861 25.0237V20.1516C14.4861 20.1506 14.4864 20.1497 14.4864 20.1484C14.4864 18.7256 15.1324 17.3515 16.3059 16.2794C18.239 14.5135 19.3474 12.0017 19.3474 9.3885C19.3477 6.5862 18.106 3.95546 15.9408 2.17134ZM8.30783 11.2492H7.57281C7.16752 11.2492 6.8378 10.9194 6.8378 10.5141C6.8378 10.1088 7.16752 9.77913 7.57281 9.77913C7.97811 9.77913 8.30783 10.1088 8.30783 10.5141V11.2492ZM11.6908 10.5141C11.6908 10.1088 12.0205 9.77913 12.4261 9.77913C12.8314 9.77913 13.1611 10.1088 13.1611 10.5141C13.1611 10.9194 12.8314 11.2492 12.4261 11.2492H11.6918L11.6908 10.5141ZM11.4029 20.5926H13.5298V24.5454H13.0919C13.091 24.5454 13.09 24.5451 13.0888 24.5451C13.0875 24.5451 13.0868 24.5454 13.0856 24.5454H6.91274C6.91178 24.5454 6.91082 24.5451 6.90955 24.5451C6.90827 24.5451 6.90764 24.5454 6.90636 24.5454H6.46886V20.5926H11.0499M9.26446 19.636V12.2058H10.7367L10.7476 19.636H9.26446ZM11.0849 26.9998H8.91338C8.19973 26.9998 7.60056 26.3608 7.43474 25.502H12.5632C12.3977 26.3608 11.7986 26.9998 11.0849 26.9998ZM15.6608 15.5735C14.4261 16.7013 13.6953 18.1286 13.5585 19.636H11.7039L11.6933 12.2058H12.4261C13.3588 12.2058 14.1178 11.4469 14.1178 10.5141C14.1178 9.58142 13.3588 8.82249 12.4261 8.82249C11.4931 8.82249 10.7342 9.58142 10.7342 10.5148L10.7351 11.2492H9.26446V10.5141C9.26446 9.58142 8.50553 8.82249 7.57281 8.82249C6.6401 8.82249 5.88117 9.58142 5.88117 10.5141C5.88117 11.4469 6.6401 12.2058 7.57281 12.2058H8.30783V19.636H6.40349C6.20068 18.04 5.49022 16.6178 4.36491 15.599C2.28327 13.7131 1.28774 10.9127 1.70228 8.10757C2.20961 4.67645 4.92549 1.82058 8.30687 1.1621C10.8286 0.671664 13.3891 1.30814 15.3317 2.90955C17.2756 4.51127 18.3904 6.87288 18.3904 9.38882C18.3911 11.7338 17.3958 13.9883 15.6608 15.5735Z" fill="white"/>
</svg>
