<svg viewBox="0 0 16 16" fill="currentColor" xmlns="http://www.w3.org/2000/svg">
<path d="M10.73 1.59005C10.3983 1.25702 9.95994 1.05143 9.49181 1.00937C9.02368 0.967311 8.55569 1.09147 8.16997 1.36005C7.91573 1.53947 7.70686 1.77573 7.55997 2.05005L5.55997 5.81005L2.41997 7.05005C2.31972 7.09232 2.2307 7.15737 2.15997 7.24005C2.08673 7.32664 2.0353 7.42951 2.00997 7.54005C1.98526 7.64529 1.98526 7.75482 2.00997 7.86005C2.04112 7.96442 2.09587 8.06023 2.16997 8.14005L4.36997 10.3401L1.52997 13.2001C1.50933 13.3282 1.51939 13.4594 1.55933 13.5828C1.59926 13.7063 1.66794 13.8186 1.7597 13.9103C1.85147 14.0021 1.9637 14.0708 2.08718 14.1107C2.21066 14.1506 2.34185 14.1607 2.46997 14.1401L5.32997 11.2801L7.52997 13.4701C7.60617 13.549 7.70138 13.607 7.80645 13.6385C7.91151 13.67 8.02292 13.674 8.12997 13.6501C8.23743 13.6302 8.33759 13.5819 8.41997 13.5101C8.5055 13.4397 8.57389 13.3508 8.61997 13.2501L9.85997 10.1401L13.62 8.14005C13.8954 7.99032 14.1317 7.77794 14.31 7.52005C14.4825 7.26412 14.5984 6.97434 14.65 6.67005C14.6922 6.36057 14.6614 6.04548 14.56 5.75005C14.4678 5.45105 14.3029 5.1796 14.08 4.96005L10.73 1.59005ZM8.72997 2.68005C8.78062 2.58773 8.85263 2.50887 8.93997 2.45005C9.02408 2.39324 9.11969 2.35568 9.21997 2.34005C9.32179 2.31505 9.42815 2.31505 9.52997 2.34005C9.63023 2.36727 9.7205 2.42282 9.78997 2.50005L13.14 5.85005C13.2138 5.92229 13.2688 6.01158 13.3 6.11005C13.3196 6.20909 13.3196 6.31102 13.3 6.41005C13.2812 6.51419 13.2402 6.61308 13.18 6.70005C13.1205 6.78427 13.0416 6.85288 12.95 6.90005L8.99997 9.08005C8.86771 9.16022 8.76305 9.27883 8.69997 9.42005L7.69997 11.8101L3.79997 7.91005L6.23997 7.00005C6.38661 6.94572 6.5078 6.83878 6.57997 6.70005L8.72997 2.68005Z"/>
<path d="M9.5202 1.81006L7.4002 3.22006L6.5002 5.57006L4.8502 7.07006L2.7002 7.58006L7.1702 12.0801L8.0002 12.6201L9.9902 9.32006L13.9502 6.77006L14.2502 5.80006L9.5202 1.81006Z"/>
</svg>
