<svg width="151" height="153" viewBox="0 0 151 153" fill="none" xmlns="http://www.w3.org/2000/svg">
<path d="M75.5 150C116.921 150 150.5 116.421 150.5 75C150.5 33.5786 116.921 0 75.5 0C34.0786 0 0.5 33.5786 0.5 75C0.5 116.421 34.0786 150 75.5 150Z" fill="url(#paint0_linear_1101_149989)"/>
<g filter="url(#filter0_d_1101_149989)">
<mask id="mask0_1101_149989" style="mask-type:alpha" maskUnits="userSpaceOnUse" x="0" y="0" width="151" height="150">
<path d="M75.5 150C116.921 150 150.5 116.421 150.5 75C150.5 33.5786 116.921 0 75.5 0C34.0786 0 0.5 33.5786 0.5 75C0.5 116.421 34.0786 150 75.5 150Z" fill="url(#paint1_linear_1101_149989)"/>
</mask>
<g mask="url(#mask0_1101_149989)">
<path d="M118.5 30H32.5C29.7386 30 27.5 32.3748 27.5 35.3043V146.696C27.5 149.625 29.7386 152 32.5 152H118.5C121.261 152 123.5 149.625 123.5 146.696V35.3043C123.5 32.3748 121.261 30 118.5 30Z" fill="white"/>
</g>
</g>
<path d="M66.5 46H40.5C38.8431 46 37.5 47.3431 37.5 49C37.5 50.6569 38.8431 52 40.5 52H66.5C68.1569 52 69.5 50.6569 69.5 49C69.5 47.3431 68.1569 46 66.5 46Z" fill="#E1EBFA"/>
<path d="M66.5 88H40.5C38.8431 88 37.5 89.3431 37.5 91C37.5 92.6569 38.8431 94 40.5 94H66.5C68.1569 94 69.5 92.6569 69.5 91C69.5 89.3431 68.1569 88 66.5 88Z" fill="#E1EBFA"/>
<path d="M108.5 61H42.5C40.2909 61 38.5 62.7909 38.5 65V75C38.5 77.2091 40.2909 79 42.5 79H108.5C110.709 79 112.5 77.2091 112.5 75V65C112.5 62.7909 110.709 61 108.5 61Z" stroke="#1485FD" stroke-width="2"/>
<path d="M108.5 102H42.5C39.7386 102 37.5 104.239 37.5 107V115C37.5 117.761 39.7386 120 42.5 120H108.5C111.261 120 113.5 117.761 113.5 115V107C113.5 104.239 111.261 102 108.5 102Z" fill="#DFEAFB"/>
<path d="M86.4999 79C89.2613 79 91.4999 76.7614 91.4999 74C91.4999 71.2386 89.2613 69 86.4999 69C83.7385 69 81.4999 71.2386 81.4999 74C81.4999 76.7614 83.7385 79 86.4999 79Z" fill="#DFEAFB"/>
<path d="M90.407 95.3704C89.607 95.3704 88.86 95.3704 88.18 95.3274C87.3424 95.2707 86.5366 94.9841 85.8514 94.4991C85.1661 94.0141 84.6279 93.3495 84.296 92.5784L80.077 84.2404C79.7675 83.8801 79.613 83.4121 79.6471 82.9384C79.6812 82.4647 79.9011 82.0236 80.259 81.7114C80.5521 81.4757 80.9178 81.3489 81.294 81.3524C81.5709 81.3604 81.8427 81.4284 82.0908 81.5517C82.3389 81.675 82.5573 81.8506 82.731 82.0664L84.647 84.6814L84.676 84.7154V74.7804C84.676 74.2875 84.8718 73.8148 85.2203 73.4662C85.5688 73.1177 86.0416 72.9219 86.5345 72.9219C87.0274 72.9219 87.5001 73.1177 87.8486 73.4662C88.1972 73.8148 88.393 74.2875 88.393 74.7804V81.2804C88.3714 81.0412 88.3999 80.8001 88.4766 80.5726C88.5533 80.345 88.6766 80.1359 88.8386 79.9586C89.0006 79.7813 89.1978 79.6397 89.4175 79.5429C89.6373 79.446 89.8748 79.396 90.115 79.396C90.3551 79.396 90.5926 79.446 90.8124 79.5429C91.0321 79.6397 91.2293 79.7813 91.3913 79.9586C91.5533 80.1359 91.6766 80.345 91.7533 80.5726C91.8301 80.8001 91.8585 81.0412 91.837 81.2804V82.6354C91.8154 82.3962 91.8439 82.1551 91.9206 81.9276C91.9973 81.7 92.1206 81.4909 92.2826 81.3136C92.4446 81.1363 92.6418 80.9947 92.8615 80.8979C93.0813 80.801 93.3188 80.751 93.559 80.751C93.7991 80.751 94.0366 80.801 94.2564 80.8979C94.4761 80.9947 94.6733 81.1363 94.8353 81.3136C94.9973 81.4909 95.1206 81.7 95.1973 81.9276C95.2741 82.1551 95.3025 82.3962 95.281 82.6354V83.6794C95.2594 83.4402 95.2879 83.1991 95.3646 82.9716C95.4413 82.744 95.5646 82.5349 95.7266 82.3576C95.8886 82.1803 96.0858 82.0387 96.3055 81.9419C96.5253 81.845 96.7628 81.795 97.003 81.795C97.2431 81.795 97.4806 81.845 97.7004 81.9419C97.9201 82.0387 98.1173 82.1803 98.2793 82.3576C98.4413 82.5349 98.5646 82.744 98.6413 82.9716C98.7181 83.1991 98.7465 83.4402 98.725 83.6794V90.0164C98.691 91.9654 97.81 95.2514 94.711 95.2514C94.486 95.2614 92.58 95.3714 90.411 95.3714L90.407 95.3704Z" fill="#1485FD" stroke="white"/>
<defs>
<filter id="filter0_d_1101_149989" x="21.5" y="21" width="108" height="132" filterUnits="userSpaceOnUse" color-interpolation-filters="sRGB">
<feFlood flood-opacity="0" result="BackgroundImageFix"/>
<feColorMatrix in="SourceAlpha" type="matrix" values="0 0 0 0 0 0 0 0 0 0 0 0 0 0 0 0 0 0 127 0" result="hardAlpha"/>
<feOffset dy="-3"/>
<feGaussianBlur stdDeviation="3"/>
<feColorMatrix type="matrix" values="0 0 0 0 0.788235 0 0 0 0 0.803922 0 0 0 0 0.85098 0 0 0 0.349 0"/>
<feBlend mode="normal" in2="BackgroundImageFix" result="effect1_dropShadow_1101_149989"/>
<feBlend mode="normal" in="SourceGraphic" in2="effect1_dropShadow_1101_149989" result="shape"/>
</filter>
<linearGradient id="paint0_linear_1101_149989" x1="75.5" y1="0" x2="75.5" y2="150" gradientUnits="userSpaceOnUse">
<stop stop-color="#E3ECFA"/>
<stop offset="1" stop-color="#DAE7FF"/>
</linearGradient>
<linearGradient id="paint1_linear_1101_149989" x1="75.5" y1="0" x2="75.5" y2="150" gradientUnits="userSpaceOnUse">
<stop stop-color="#E3ECFA"/>
<stop offset="1" stop-color="#DAE7FF"/>
</linearGradient>
</defs>
</svg>
