<svg width="42" height="42" viewBox="0 0 42 42" fill="none" xmlns="http://www.w3.org/2000/svg">
<rect width="42" height="42" rx="8" fill="#975DE3"/>
<path d="M26.9408 9.17134C24.7763 7.38754 21.9268 6.67772 19.1245 7.22332C15.3518 7.9577 12.3219 11.1423 11.7562 14.9679C11.2948 18.0897 12.4038 21.2074 14.723 23.3081C15.768 24.2546 16.3984 25.6178 16.4985 27.1471C16.5004 27.1749 16.5058 27.2016 16.5119 27.2281V32.0237C16.5119 32.2877 16.7259 32.502 16.9902 32.502H17.4669C17.6611 33.892 18.6828 34.9564 19.9134 34.9564H22.0849C23.3155 34.9564 24.3368 33.892 24.531 32.502H25.0078C25.2718 32.502 25.4861 32.2877 25.4861 32.0237V27.1516C25.4861 27.1506 25.4864 27.1497 25.4864 27.1484C25.4864 25.7256 26.1324 24.3515 27.3059 23.2794C29.239 21.5135 30.3474 19.0017 30.3474 16.3885C30.3477 13.5862 29.106 10.9555 26.9408 9.17134ZM19.3078 18.2492H18.5728C18.1675 18.2492 17.8378 17.9194 17.8378 17.5141C17.8378 17.1088 18.1675 16.7791 18.5728 16.7791C18.9781 16.7791 19.3078 17.1088 19.3078 17.5141V18.2492ZM22.6908 17.5141C22.6908 17.1088 23.0205 16.7791 23.4261 16.7791C23.8314 16.7791 24.1611 17.1088 24.1611 17.5141C24.1611 17.9194 23.8314 18.2492 23.4261 18.2492H22.6918L22.6908 17.5141ZM22.4029 27.5926H24.5298V31.5454H24.0919C24.091 31.5454 24.09 31.5451 24.0888 31.5451C24.0875 31.5451 24.0868 31.5454 24.0856 31.5454H17.9127C17.9118 31.5454 17.9108 31.5451 17.9095 31.5451C17.9083 31.5451 17.9076 31.5454 17.9064 31.5454H17.4689V27.5926H22.0499M20.2645 26.636V19.2058H21.7367L21.7476 26.636H20.2645ZM22.0849 33.9998H19.9134C19.1997 33.9998 18.6006 33.3608 18.4347 32.502H23.5632C23.3977 33.3608 22.7986 33.9998 22.0849 33.9998ZM26.6608 22.5735C25.4261 23.7013 24.6953 25.1286 24.5585 26.636H22.7039L22.6933 19.2058H23.4261C24.3588 19.2058 25.1178 18.4469 25.1178 17.5141C25.1178 16.5814 24.3588 15.8225 23.4261 15.8225C22.4931 15.8225 21.7342 16.5814 21.7342 17.5148L21.7351 18.2492H20.2645V17.5141C20.2645 16.5814 19.5055 15.8225 18.5728 15.8225C17.6401 15.8225 16.8812 16.5814 16.8812 17.5141C16.8812 18.4469 17.6401 19.2058 18.5728 19.2058H19.3078V26.636H17.4035C17.2007 25.04 16.4902 23.6178 15.3649 22.599C13.2833 20.7131 12.2877 17.9127 12.7023 15.1076C13.2096 11.6764 15.9255 8.82058 19.3069 8.1621C21.8286 7.67166 24.3891 8.30814 26.3317 9.90955C28.2756 11.5113 29.3904 13.8729 29.3904 16.3888C29.3911 18.7338 28.3958 20.9883 26.6608 22.5735Z" fill="white"/>
</svg>
